<svg width="18" height="18" viewBox="0 0 18 18" fill="none" xmlns="http://www.w3.org/2000/svg">
<path fill-rule="evenodd" clip-rule="evenodd" d="M0 1.47752C0 1.07788 0.322355 0.753906 0.72 0.753906H2.57184C2.90927 0.753906 3.20144 0.989428 3.27468 1.32047L3.915 4.21495C4.0013 4.60506 3.75659 4.99163 3.36842 5.07837C2.98026 5.1651 2.59562 4.91916 2.50932 4.52905L1.99434 2.20114H0.72C0.322355 2.20114 0 1.87717 0 1.47752Z" fill="#262338" fill-opacity="0.64"/>
<path fill-rule="evenodd" clip-rule="evenodd" d="M2.6522 3.91722C2.7889 3.74723 2.99472 3.64844 3.21219 3.64844H15.3639C16.4345 3.64844 17.23 4.64011 17.0069 5.69057L15.5648 12.4451C15.3985 13.2234 14.7144 13.7791 13.922 13.7791H5.84163C5.04973 13.7791 4.36599 13.2231 4.19976 12.4452L2.50822 4.5239C2.46259 4.3102 2.51551 4.08722 2.6522 3.91722ZM4.10311 5.09567L5.60766 12.1413C5.63152 12.253 5.72922 12.3319 5.84163 12.3319H13.922C14.0358 12.3319 14.1331 12.2525 14.1569 12.1413L15.5986 5.38842C15.5986 5.3883 15.5986 5.38854 15.5986 5.38842C15.6306 5.23684 15.5162 5.09567 15.3639 5.09567H4.10311Z" fill="#262338" fill-opacity="0.64"/>
<path fill-rule="evenodd" clip-rule="evenodd" d="M4.90626 16.9165C4.90329 16.3128 5.39106 15.8293 5.98435 15.8293C6.58042 15.8293 7.06531 16.3142 7.06531 16.9148C7.06531 17.5141 6.58167 18.0002 5.98531 18.0002C5.39135 18.0002 4.90621 17.5169 4.90626 16.9165ZM5.35993 16.9135L4.90628 16.9113C4.90627 16.913 4.90626 16.9148 4.90626 16.9165" fill="#262338" fill-opacity="0.64"/>
<path fill-rule="evenodd" clip-rule="evenodd" d="M12.8242 16.9165C12.8213 16.3128 13.309 15.8293 13.9023 15.8293C14.4984 15.8293 14.9833 16.3142 14.9833 16.9148C14.9833 17.5141 14.4996 18.0002 13.9033 18.0002C13.3093 18.0002 12.8242 17.5169 12.8242 16.9165ZM13.2779 16.9135L12.8242 16.9113C12.8242 16.913 12.8242 16.9148 12.8242 16.9165" fill="#262338" fill-opacity="0.64"/>
</svg>
