<svg width="18" height="18" viewBox="0 0 18 18" fill="none" xmlns="http://www.w3.org/2000/svg">
<path fill-rule="evenodd" clip-rule="evenodd" d="M8.05803 1.74658C4.57205 1.74658 1.74609 4.57253 1.74609 8.05852C1.74609 11.5445 4.57205 14.3705 8.05803 14.3705C11.544 14.3705 14.37 11.5445 14.37 8.05852C14.37 4.57253 11.544 1.74658 8.05803 1.74658ZM0.246094 8.05852C0.246094 3.74411 3.74362 0.246582 8.05803 0.246582C12.3725 0.246582 15.87 3.74411 15.87 8.05852C15.87 12.3729 12.3725 15.8705 8.05803 15.8705C3.74362 15.8705 0.246094 12.3729 0.246094 8.05852Z" fill="#262338" fill-opacity="0.64"/>
<path fill-rule="evenodd" clip-rule="evenodd" d="M8.05617 5.04419C7.19377 5.04419 6.3667 5.38678 5.75689 5.99658C5.464 6.28948 4.98913 6.28948 4.69623 5.99658C4.40334 5.70369 4.40334 5.22882 4.69623 4.93592C5.58734 4.04481 6.79595 3.54419 8.05617 3.54419C9.31639 3.54419 10.525 4.04481 11.4161 4.93592C11.709 5.22882 11.709 5.70369 11.4161 5.99658C11.1232 6.28948 10.6483 6.28948 10.3554 5.99658C9.74564 5.38678 8.91857 5.04419 8.05617 5.04419Z" fill="#262338" fill-opacity="0.64"/>
<path fill-rule="evenodd" clip-rule="evenodd" d="M12.5205 12.5212C12.8133 12.2283 13.2882 12.2283 13.5811 12.5212L17.5328 16.4728C17.8257 16.7657 17.8257 17.2406 17.5328 17.5335C17.2399 17.8264 16.765 17.8264 16.4721 17.5335L12.5205 13.5818C12.2276 13.289 12.2276 12.8141 12.5205 12.5212Z" fill="#262338" fill-opacity="0.64"/>
</svg>
