<svg width="18" height="20" viewBox="0 0 18 20" fill="none" xmlns="http://www.w3.org/2000/svg">
<path fill-rule="evenodd" clip-rule="evenodd" d="M10.9446 3.05546C9.8706 1.98151 8.12941 1.98151 7.05546 3.05546C5.98151 4.12941 5.98151 5.8706 7.05546 6.94455C8.12941 8.0185 9.8706 8.0185 10.9446 6.94455C12.0185 5.8706 12.0185 4.12941 10.9446 3.05546ZM12.0052 1.9948C10.3455 0.335067 7.65453 0.335067 5.9948 1.9948C4.33507 3.65453 4.33507 6.34548 5.9948 8.00521C7.65453 9.66494 10.3455 9.66494 12.0052 8.00521C13.6649 6.34548 13.6649 3.65453 12.0052 1.9948Z" fill="#262338" fill-opacity="0.64"/>
<path fill-rule="evenodd" clip-rule="evenodd" d="M3.10466 12.2211C4.7321 11.2737 6.86712 10.7581 9 10.7581C11.1329 10.7581 13.2679 11.2737 14.8953 12.2211C16.516 13.1646 17.75 14.6183 17.75 16.5001V17.5001C17.75 18.4663 16.9662 19.2501 16 19.2501H2C1.03379 19.2501 0.25 18.4663 0.25 17.5001V16.5001C0.25 14.6183 1.48397 13.1646 3.10466 12.2211ZM3.85934 13.5175C2.49203 14.3135 1.75 15.3558 1.75 16.5001V17.5001C1.75 17.6378 1.86221 17.7501 2 17.7501H16C16.1378 17.7501 16.25 17.6378 16.25 17.5001V16.5001C16.25 15.3558 15.508 14.3135 14.1407 13.5175C12.7801 12.7254 10.9151 12.2581 9 12.2581C7.08488 12.2581 5.2199 12.7254 3.85934 13.5175Z" fill="#262338" fill-opacity="0.64"/>
</svg>
